<?xml version="1.0" encoding="utf-8"?>
<!-- Generator: Adobe Illustrator 18.1.1, SVG Export Plug-In . SVG Version: 6.00 Build 0)  -->
<svg version="1.1" id="Layer_1" xmlns="http://www.w3.org/2000/svg" xmlns:xlink="http://www.w3.org/1999/xlink" x="0px" y="0px"
     viewBox="0 0 156 80" enable-background="new 0 0 156 80" xml:space="preserve">
<g>
    <polygon fill="#00AEEF" points="156,80 0,80 0,0 156,0 156,80 	"/>
    <path fill="#FFFFFF" d="M28.4,19.2c-1-0.3-2.1-0.5-3.1-0.5c-3,0-4.4,1.7-4.4,5.5v1.6h5.9v3h-5.9V47h-3.8V28.8h-4.4v-3h4.4v-1.6
        c0-5.9,2.9-8.6,8.2-8.6c1.2,0,2.3,0.1,3.5,0.4L28.4,19.2L28.4,19.2z"/>
    <path fill="#FFFFFF" d="M46.7,34.3c0-4.9-2.5-8.9-8.5-8.9c-6,0-9.5,4.7-9.5,11.1c0,7.5,3.5,10.9,10,10.9c2.6,0,5.1-0.5,7.2-1.3
        L45.6,43c-1.7,0.8-4,1.3-6.2,1.3c-4.2,0-6.5-2.1-6.7-7c0-1,0-2.8,0.2-3.9c0.4-3.1,2.4-5.2,5.2-5.2c3,0,4.8,2.1,4.7,5.2l-7.4,0v2.7
        h11.2C46.6,35.4,46.7,34.8,46.7,34.3L46.7,34.3z"/>
    <path fill="#FFFFFF" d="M65,47V33.3c0-3-0.8-4.7-3.6-4.7c-3.5,0-6,3.5-6,8.2V47h-3.8V25.8h3.7c0,1.2-0.1,3.2-0.3,4.4l0.1,0
        c1.2-2.9,3.8-4.9,7.5-4.9c4.9,0,6.4,3,6.4,6.8V47H65L65,47z"/>
    <path fill="#FFFFFF" d="M103.5,47.4c-4.4,0-5.7-1.8-5.7-6.4V28.8h-4.4v-3h4.4v-6.9l3.8-1.1v7.9h5.9v3h-5.9v10.9
        c0,3.5,0.6,4.4,3,4.4c1,0,2.1-0.2,2.9-0.4v3.2C106.4,47.2,104.8,47.4,103.5,47.4L103.5,47.4z"/>
    <path fill="#FFFFFF" d="M123.1,29.2c-4.5-0.8-6.6,2.5-6.6,9.3V47h-3.8V25.8h3.7c0,1.3-0.1,3.3-0.5,5h0.1c0.9-2.9,3.1-5.9,7.3-5.4
        L123.1,29.2L123.1,29.2z"/>
    <path fill="#FFFFFF" d="M20.4,56.6c-1.4,0-2.7,1.2-2.7,3.3c0,2,0.9,3.4,2.7,3.4c1.4,0,2.7-1.1,2.7-3.3
        C23.1,57.8,22.1,56.6,20.4,56.6L20.4,56.6z M20.3,64.4c-2.6,0-3.8-1.7-3.8-4.3c0-2.9,1.8-4.5,4.1-4.5c2.3,0,3.8,1.5,3.8,4.3
        C24.4,62.8,22.5,64.4,20.3,64.4L20.3,64.4z"/>
    <path fill="#FFFFFF" d="M32.5,64.3L29.3,59c-0.4-0.6-0.7-1.2-1-1.8c0.1,0.9,0.1,3,0.1,4.3v2.8h-1.1v-8.6h1.5l3.2,5.1
        c0.4,0.6,0.7,1.3,1.1,1.9c-0.1-1.1-0.1-3.2-0.1-4.6v-2.4h1.1v8.6H32.5L32.5,64.3z"/>
    <polygon fill="#FFFFFF" points="37.7,64.3 37.7,55.7 38.9,55.7 38.9,63.3 42,63.3 42,64.3 37.7,64.3 	"/>
    <polygon fill="#FFFFFF" points="44.4,64.3 44.4,55.7 45.6,55.7 45.6,64.3 44.4,64.3 	"/>
    <path fill="#FFFFFF" d="M54.5,64.3L51.3,59c-0.4-0.6-0.7-1.2-1-1.8c0.1,0.9,0.1,3,0.1,4.3v2.8h-1.1v-8.6h1.5l3.2,5.1
        c0.4,0.6,0.7,1.3,1.1,1.9c0-1.1-0.1-3.2-0.1-4.6v-2.4H56v8.6H54.5L54.5,64.3z"/>
    <polygon fill="#FFFFFF" points="59.7,64.3 59.7,55.7 64.1,55.7 64.1,56.7 60.9,56.7 60.9,59.4 64,59.4 64,60.3 60.9,60.3
        60.9,63.3 64.1,63.3 64.1,64.3 59.7,64.3 	"/>
    <path fill="#FFFFFF" d="M72.8,64.4c-0.6,0-1.2-0.1-1.7-0.2l0.1-1.1c0.5,0.2,1.2,0.3,1.8,0.3c1,0,1.9-0.4,1.9-1.5
        c0-1.9-3.9-1.2-3.9-3.9c0-1.4,1.1-2.4,3-2.4c0.5,0,1,0.1,1.5,0.2l-0.1,1c-0.5-0.1-1-0.2-1.5-0.2c-1.2,0-1.8,0.5-1.8,1.3
        c0,1.9,3.9,1.2,3.9,3.9C76,63.3,74.8,64.4,72.8,64.4L72.8,64.4z"/>
    <path fill="#FFFFFF" d="M82.4,56.6c-1.4,0-2.7,1.2-2.7,3.3c0,2,0.9,3.4,2.7,3.4c1.4,0,2.7-1.1,2.7-3.3
        C85.1,57.8,84.1,56.6,82.4,56.6L82.4,56.6z M82.3,64.4c-2.6,0-3.8-1.7-3.8-4.3c0-2.9,1.8-4.5,4.1-4.5c2.3,0,3.8,1.5,3.8,4.3
        C86.4,62.8,84.5,64.4,82.3,64.4L82.3,64.4z"/>
    <polygon fill="#FFFFFF" points="89.2,64.3 89.2,55.7 90.4,55.7 90.4,63.3 93.5,63.3 93.5,64.3 89.2,64.3 	"/>
    <path fill="#FFFFFF" d="M98.9,64.4c-2.7,0-3.2-1.5-3.2-3v-5.7h1.2v5.6c0,1.2,0.4,2.1,2.1,2.1c1.5,0,2.2-0.6,2.2-2.3v-5.4h1.1V61
        C102.4,63.2,101.2,64.4,98.9,64.4L98.9,64.4z"/>
    <polygon fill="#FFFFFF" points="108.4,56.7 108.4,64.3 107.2,64.3 107.2,56.7 104.7,56.7 104.7,55.7 110.8,55.7 110.8,56.7
        108.4,56.7 	"/>
    <polygon fill="#FFFFFF" points="113.3,64.3 113.3,55.7 114.4,55.7 114.4,64.3 113.3,64.3 	"/>
    <path fill="#FFFFFF" d="M121.3,56.6c-1.4,0-2.7,1.2-2.7,3.3c0,2,0.9,3.4,2.7,3.4c1.4,0,2.7-1.1,2.7-3.3
        C124,57.8,123,56.6,121.3,56.6L121.3,56.6z M121.1,64.4c-2.6,0-3.8-1.7-3.8-4.3c0-2.9,1.8-4.5,4.1-4.5c2.3,0,3.8,1.5,3.8,4.3
        C125.2,62.8,123.4,64.4,121.1,64.4L121.1,64.4z"/>
    <path fill="#FFFFFF" d="M133.4,64.3l-3.3-5.3c-0.4-0.6-0.7-1.2-1-1.8c0.1,0.9,0.1,3,0.1,4.3v2.8h-1.1v-8.6h1.5l3.2,5.1
        c0.4,0.6,0.7,1.3,1.1,1.9c0-1.1-0.1-3.2-0.1-4.6v-2.4h1.1v8.6H133.4L133.4,64.3z"/>
    <path fill="#FFFFFF" d="M139.8,64.4c-0.6,0-1.2-0.1-1.7-0.2l0.1-1.1c0.5,0.2,1.2,0.3,1.8,0.3c1,0,1.9-0.4,1.9-1.5
        c0-1.9-3.9-1.2-3.9-3.9c0-1.4,1.1-2.4,3-2.4c0.5,0,1,0.1,1.5,0.2l-0.1,1c-0.5-0.1-1-0.2-1.5-0.2c-1.2,0-1.8,0.5-1.8,1.3
        c0,1.9,3.9,1.2,3.9,3.9C143,63.3,141.8,64.4,139.8,64.4L139.8,64.4z"/>
    <path fill="#FFFFFF" d="M143.3,34.3c0-4.9-2.5-8.9-8.5-8.9c-6,0-9.5,4.7-9.5,11.1c0,7.5,3.5,10.9,10,10.9c2.6,0,5.1-0.5,7.2-1.3
        l-0.3-3.1c-1.7,0.8-4,1.3-6.2,1.3c-4.2,0-6.5-2.1-6.7-7c0-1,0-2.7,0.2-3.8c0.4-3.1,2.4-5.2,5.2-5.2c3,0,4.8,2.1,4.7,5.2l-7.4,0v2.7
        h11.2C143.2,35.4,143.3,34.8,143.3,34.3L143.3,34.3z"/>
    <path fill="#FFFFFF" d="M91.4,34.3c0-4.9-2.5-8.9-8.5-8.9c-6,0-9.5,4.7-9.5,11.1c0,7.5,3.5,10.9,10,10.9c2.6,0,5.1-0.5,7.2-1.3
        L90.3,43c-1.7,0.8-4,1.3-6.2,1.3c-4.2,0-6.5-2.1-6.7-7c0-1,0-2.7,0.2-3.8c0.4-3.1,2.4-5.2,5.2-5.2c3,0,4.8,2.1,4.7,5.2l-7.4,0v2.7
        h11.2C91.4,35.4,91.4,34.8,91.4,34.3L91.4,34.3z"/>
    <polygon fill="#FFFFFF" points="87.4,22.3 82.9,19.4 78.5,22.3 77.1,20.1 82.9,16.1 88.9,20 87.4,22.3 	"/>
</g>
</svg>
